<?xml version="1.0" encoding="UTF-8"?>
<svg id="OUTLINED" xmlns="http://www.w3.org/2000/svg" viewBox="0 0 440 440">
  <defs>
    <style>
      .cls-1 {
        fill: #fff;
      }
    </style>
  </defs>
  <path class="cls-1" d="M108.41,246.7c-14.38,8.3-25.26,20.32-32.18,34.13L7.96,399.08h136.63s-.02-.02-.02-.02c15.39.9,31.21-2.52,45.56-10.8,39.09-22.57,52.48-72.55,29.92-111.64-15.14-26.22-42.61-40.88-70.86-40.88-13.86,0-27.92,3.53-40.79,10.96M170.4,117.93c-9.4,16.91-9.93,38.19.45,56.17h0s113.07,196.1,113.07,196.1c.06.1.11.21.17.31,10.38,17.98,29.07,28.16,48.42,28.47h99.54s-49.29-85.39-49.29-85.39l.05-.03-112.85-195.62-49.77-86.21-49.78,86.21Z"/>
</svg>