<svg xmlns="http://www.w3.org/2000/svg" fill="none" viewBox="0 0 32 32"><path fill="url(#a)" fill-rule="evenodd" d="M21 2a6 6 0 0 1 6 6v18.5a3.5 3.5 0 0 1-3.5 3.5h-17A3.5 3.5 0 0 1 5 23.337V5a3 3 0 0 1 3-3h13z" clip-rule="evenodd"/><path fill="url(#b)" fill-rule="evenodd" d="M6.5 29h14.55A3.49 3.49 0 0 1 20 26.5c0-.98.402-1.865 1.05-2.5H6.5a2.5 2.5 0 0 0 0 5zm0-6h17a.5.5 0 1 1 0 1 2.5 2.5 0 1 0 2.5 2.5V8a5 5 0 0 0-5-5H8a2 2 0 0 0-2 2v18.035c.163-.023.33-.035.5-.035z" clip-rule="evenodd"/><path fill="url(#c)" fill-rule="evenodd" d="M6.5 29h14.55A3.49 3.49 0 0 1 20 26.5c0-.98.402-1.865 1.05-2.5H6.5a2.5 2.5 0 0 0 0 5zm0-6h17a.5.5 0 1 1 0 1 2.5 2.5 0 1 0 2.5 2.5V8a5 5 0 0 0-5-5H8a2 2 0 0 0-2 2v18.035c.163-.023.33-.035.5-.035z" clip-rule="evenodd"/><path fill="url(#d)" d="M18.17 7.03a.5.5 0 0 1 .3.641l-4 11a.5.5 0 0 1-.94-.342l4-11a.5.5 0 0 1 .64-.299z"/><path fill="url(#e)" d="M11.354 10.147a.5.5 0 0 1 0 .707L9.207 13l2.147 2.147a.5.5 0 0 1-.708.707l-2.5-2.5a.5.5 0 0 1 0-.707l2.5-2.5a.5.5 0 0 1 .708 0z"/><path fill="url(#f)" d="M20.646 10.147a.5.5 0 0 1 .708 0l2.5 2.5a.5.5 0 0 1 0 .707l-2.5 2.5a.5.5 0 0 1-.708-.707L22.793 13l-2.147-2.146a.5.5 0 0 1 0-.707z"/><defs><linearGradient id="a" x1="10.75" x2="15.121" y1="2" y2="30.098" gradientUnits="userSpaceOnUse"><stop stop-color="#BBB"/><stop offset="1" stop-color="#888"/></linearGradient><linearGradient id="b" x1="10.111" x2="13.974" y1="3" y2="29.151" gradientUnits="userSpaceOnUse"><stop stop-color="#fff"/><stop offset="1" stop-color="#EBEBEB"/></linearGradient><radialGradient id="c" cx="0" cy="0" r="1" gradientTransform="matrix(11.6111 20.5833 -17.4167 7.71875 11.028 9.77)" gradientUnits="userSpaceOnUse"><stop offset=".177" stop-color="#fff"/><stop offset="1" stop-color="#EFEFEF"/></radialGradient><linearGradient id="d" x1="11.5" x2="16.941" y1="5" y2="19" gradientUnits="userSpaceOnUse"><stop offset="0" stop-color="#597493"/><stop offset="1" stop-color="#0F2F56"/></linearGradient><linearGradient id="e" x1="11.5" x2="16.941" y1="5" y2="19" gradientUnits="userSpaceOnUse"><stop offset="0" stop-color="#597493"/><stop offset="1" stop-color="#0F2F56"/></linearGradient><linearGradient id="f" x1="11.5" x2="16.941" y1="5" y2="19" gradientUnits="userSpaceOnUse"><stop offset="0" stop-color="#597493"/><stop offset="1" stop-color="#0F2F56"/></linearGradient></defs></svg>